<svg width="24" height="24" viewBox="0 0 24 24" fill="none" xmlns="http://www.w3.org/2000/svg">
<path fill-rule="evenodd" clip-rule="evenodd" d="M6 8C6 6.4087 6.63214 4.88258 7.75736 3.75736C8.88258 2.63214 10.4087 2 12 2C13.5913 2 15.1174 2.63214 16.2426 3.75736C17.3679 4.88258 18 6.4087 18 8V10C18.5304 10 19.0391 10.2107 19.4142 10.5858C19.7893 10.9609 20 11.4696 20 12V20C20 20.5304 19.7893 21.0391 19.4142 21.4142C19.0391 21.7893 18.5304 22 18 22H6C5.46957 22 4.96086 21.7893 4.58579 21.4142C4.21071 21.0391 4 20.5304 4 20V12C4 11.4696 4.21071 10.9609 4.58579 10.5858C4.96086 10.2107 5.46957 10 6 10V8ZM16 8V10H8V8C8 6.93913 8.42143 5.92172 9.17157 5.17157C9.92172 4.42143 10.9391 4 12 4C13.0609 4 14.0783 4.42143 14.8284 5.17157C15.5786 5.92172 16 6.93913 16 8ZM13 16.732C13.3813 16.5119 13.6792 16.1721 13.8477 15.7653C14.0162 15.3586 14.0457 14.9076 13.9318 14.4824C13.8178 14.0571 13.5667 13.6813 13.2175 13.4133C12.8682 13.1453 12.4403 13 12 13C11.556 12.9997 11.1245 13.1472 10.7735 13.4193C10.4226 13.6913 10.1722 14.0724 10.0617 14.5024C9.95122 14.9325 9.98701 15.3871 10.1634 15.7946C10.3398 16.2021 10.6468 16.5392 11.036 16.753L11 19H13V16.732Z" fill="#556987"/>
</svg>
