<svg width="28" height="16" viewBox="0 0 28 16" fill="none" xmlns="http://www.w3.org/2000/svg">
<path d="M26.0002 6.17201H17.0001V1.12218C17.0001 0.502528 16.1045 0 15.0001 0H13.0001C11.8957 0 11.0001 0.502528 11.0001 1.12218V6.17201H2.00002C0.895632 6.17201 0 6.67454 0 7.2942V8.41638C0 9.03604 0.895632 9.53857 2.00002 9.53857H11.0001V14.5884C11.0001 15.2081 11.8957 15.7106 13.0001 15.7106H15.0001C16.1045 15.7106 17.0001 15.2081 17.0001 14.5884V9.53857H26.0002C27.1046 9.53857 28.0002 9.03604 28.0002 8.41638V7.2942C28.0002 6.67454 27.1046 6.17201 26.0002 6.17201Z" fill="#003366"/>
</svg>
