<svg width="22" height="22" viewBox="0 0 22 22" fill="none" xmlns="http://www.w3.org/2000/svg">
<path d="M21.2326 7.43907V2.79349C21.2326 1.3507 20.5777 0.767442 18.9507 0.767442H14.8167C13.1898 0.767442 12.5349 1.3507 12.5349 2.79349V7.42884C12.5349 8.88186 13.1898 9.45488 14.8167 9.45488H18.9507C20.5777 9.46512 21.2326 8.88186 21.2326 7.43907Z" stroke="#000929" stroke-width="1.5" stroke-linecap="round" stroke-linejoin="round"/>
<path opacity="0.4" d="M21.2326 18.9507V14.8167C21.2326 13.1898 20.5777 12.5349 18.9507 12.5349H14.8167C13.1898 12.5349 12.5349 13.1898 12.5349 14.8167V18.9507C12.5349 20.5777 13.1898 21.2326 14.8167 21.2326H18.9507C20.5777 21.2326 21.2326 20.5777 21.2326 18.9507Z" stroke="#000929" stroke-width="1.5" stroke-linecap="round" stroke-linejoin="round"/>
<path opacity="0.4" d="M9.46512 7.43907V2.79349C9.46512 1.3507 8.81023 0.767442 7.18326 0.767442H3.0493C1.42233 0.767442 0.767442 1.3507 0.767442 2.79349V7.42884C0.767442 8.88186 1.42233 9.45488 3.0493 9.45488H7.18326C8.81023 9.46512 9.46512 8.88186 9.46512 7.43907Z" stroke="#000929" stroke-width="1.5" stroke-linecap="round" stroke-linejoin="round"/>
<path d="M9.46512 18.9507V14.8167C9.46512 13.1898 8.81023 12.5349 7.18326 12.5349H3.0493C1.42233 12.5349 0.767442 13.1898 0.767442 14.8167V18.9507C0.767442 20.5777 1.42233 21.2326 3.0493 21.2326H7.18326C8.81023 21.2326 9.46512 20.5777 9.46512 18.9507Z" stroke="#000929" stroke-width="1.5" stroke-linecap="round" stroke-linejoin="round"/>
</svg>
