<svg width="20" height="22" viewBox="0 0 20 22" fill="none" xmlns="http://www.w3.org/2000/svg">
<path d="M9.82365 0.762125C6.08415 0.762125 3.05598 3.7903 3.05598 7.52979V9.66374C3.05598 10.3547 2.77145 11.3912 2.41579 11.9806L1.12526 14.1349C0.332651 15.4661 0.881381 16.9497 2.34466 17.4374C7.20194 19.0531 12.4555 19.0531 17.3128 17.4374C18.6846 16.9801 19.274 15.3746 18.5322 14.1349L17.2417 11.9806C16.886 11.3912 16.6015 10.3446 16.6015 9.66374V7.52979C16.5913 3.81062 13.5428 0.762125 9.82365 0.762125Z" stroke="#F9F9F9" stroke-width="1.5" stroke-miterlimit="10" stroke-linecap="round"/>
<path d="M13.1872 17.8541C13.1872 19.7136 11.6629 21.2379 9.80335 21.2379C8.87864 21.2379 8.02506 20.8517 7.41536 20.242C6.80566 19.6323 6.41951 18.7788 6.41951 17.8541" stroke="#F9F9F9" stroke-width="1.5" stroke-miterlimit="10"/>
</svg>
