<svg width="27" height="19" viewBox="0 0 27 19" fill="none" xmlns="http://www.w3.org/2000/svg">
<path d="M13.7548 9.03159L11.959 10.2211C10.9656 10.8791 10.9656 11.9505 11.959 12.6085C12.9524 13.2665 14.5699 13.2665 15.5633 12.6085L18.3907 10.7357C20.3775 9.41967 20.3775 7.28532 18.3907 5.96085C16.4039 4.64481 13.1817 4.64481 11.1821 5.96085L8.10008 8.00238C6.39348 9.13282 6.39348 10.9635 8.10008 12.0939" stroke="#2E3B5B" stroke-width="1.5" stroke-linecap="round" stroke-linejoin="round"/>
<path d="M13.5 17.6364C20.5338 17.6364 26.2359 13.8594 26.2359 9.20029C26.2359 4.54114 20.5338 0.764151 13.5 0.764151C6.46618 0.764151 0.764151 4.54114 0.764151 9.20029C0.764151 13.8594 6.46618 17.6364 13.5 17.6364Z" stroke="#2E3B5B" stroke-width="1.5" stroke-linecap="round" stroke-linejoin="round"/>
</svg>
